<svg xmlns="http://www.w3.org/2000/svg" width="438.8" height="481.7142857142857" viewBox="0 0 438.8 481.7142857142857" font-family="system-ui, -apple-system, &quot;Segoe UI&quot;, Roboto, sans-serif" font-size="14">
<rect x="0" y="0" width="438.8" height="481.7142857142857" fill="#ffffff" />
<rect x="0.5" y="0.5" width="437.8" height="480.7142857142857" fill="none" stroke="#505050" stroke-width="1.25" />
<line x1="0" y1="36" x2="438.8" y2="36" stroke="#b0b0b0" stroke-width="1" />
<text x="219.4" y="23.333333333333332" text-anchor="middle" font-size="16" font-weight="600" fill="#2d2d2d">Planet — Earth</text>
<line x1="0" y1="81.71428571428572" x2="438.8" y2="81.71428571428572" stroke="#b0b0b0" stroke-width="1" />
<text x="145.34285714285716" y="65.28571428571428" font-weight="700" font-size="18" fill="#2d2d2d">Earth — Class 28</text>
<text x="16" y="115.71428571428572" font-size="11" font-weight="700" letter-spacing="0.8" fill="#6b7078">MODIFIER LIST</text>
<line x1="16" y1="119.71428571428572" x2="422.8" y2="119.71428571428572" stroke="#c4c4c4" stroke-width="1" opacity="0.6" />
<g transform="translate(16 130.71428571428572) scale(0.875)" color="#2d2d2d">
<path d="M 8 14 Q 2 10 2 6 Q 2 3 5 3 Q 7 3 8 5 Q 9 3 11 3 Q 14 3 14 6 Q 14 10 8 14 Z" fill="none" stroke="currentColor" stroke-width="1.4" stroke-linejoin="round" />
</g>
<text x="36" y="142.71428571428572" fill="#2d2d2d">Approval</text>
<text x="422.8" y="142.71428571428572" text-anchor="end" fill="#3f8f5c">+15%</text>
<g transform="translate(16 158.71428571428572) scale(0.875)" color="#2d2d2d">
<path d="M 2 14 L 2 8 L 7 10 L 7 7 L 12 10 L 12 4 L 14 4 L 14 14 Z" fill="none" stroke="currentColor" stroke-width="1.4" stroke-linejoin="round" />
</g>
<text x="36" y="170.71428571428572" fill="#2d2d2d">Industry</text>
<text x="422.8" y="170.71428571428572" text-anchor="end" fill="#3f8f5c">+10%</text>
<g transform="translate(16 186.71428571428572) scale(0.875)" color="#2d2d2d">
<path d="M 8 2 L 14 13 L 2 13 Z" fill="none" stroke="currentColor" stroke-width="1.4" stroke-linejoin="round" />
<line x1="8" y1="6" x2="8" y2="9" stroke="currentColor" stroke-width="1.6" />
<circle cx="8" cy="11" r="0.8" fill="currentColor" />
</g>
<text x="36" y="198.71428571428572" fill="#2d2d2d">Crime</text>
<text x="422.8" y="198.71428571428572" text-anchor="end" fill="#3f8f5c">Low</text>
<g transform="translate(16 214.71428571428572) scale(0.875)" color="#2d2d2d">
<path d="M 8 14 Q 2 10 2 6 Q 2 3 5 3 Q 7 3 8 5 Q 9 3 11 3 Q 14 3 14 6 Q 14 10 8 14 Z" fill="none" stroke="currentColor" stroke-width="1.4" stroke-linejoin="round" />
</g>
<text x="36" y="226.71428571428572" fill="#2d2d2d">Loyalty</text>
<text x="422.8" y="226.71428571428572" text-anchor="end" fill="#b0413c">-10%</text>
<g transform="translate(16 242.71428571428572) scale(0.875)" color="#2d2d2d">
<path d="M 6 2 L 6 6 L 3 13 Q 3 14 4 14 L 12 14 Q 13 14 13 13 L 10 6 L 10 2 Z" fill="none" stroke="currentColor" stroke-width="1.4" stroke-linejoin="round" />
<line x1="5.5" y1="2" x2="10.5" y2="2" stroke="currentColor" stroke-width="1.4" />
</g>
<text x="36" y="254.71428571428572" fill="#2d2d2d">Research</text>
<text x="422.8" y="254.71428571428572" text-anchor="end" fill="#c79a2e">-5%</text>
<text x="16" y="297.7142857142857" font-size="11" font-weight="700" letter-spacing="0.8" fill="#6b7078">QUICK STATS</text>
<line x1="16" y1="301.7142857142857" x2="422.8" y2="301.7142857142857" stroke="#c4c4c4" stroke-width="1" opacity="0.6" />
<g transform="translate(16 312.7142857142857) scale(0.875)" color="#7a7f87">
<path d="M 2 14 L 2 8 L 7 10 L 7 7 L 12 10 L 12 4 L 14 4 L 14 14 Z" fill="none" stroke="currentColor" stroke-width="1.4" stroke-linejoin="round" />
</g>
<text x="34" y="324.7142857142857" font-size="12" letter-spacing="0.5" fill="#7a7f87">GDP</text>
<text x="58.51428571428572" y="324.7142857142857" font-weight="500" fill="#3f8f5c">+12%</text>
<g transform="translate(105.31428571428572 312.7142857142857) scale(0.875)" color="#7a7f87">
<circle cx="8" cy="6" r="2.5" fill="none" stroke="currentColor" stroke-width="1.4" />
<path d="M 3 14 Q 3 9 8 9 Q 13 9 13 14 Z" fill="none" stroke="currentColor" stroke-width="1.4" stroke-linejoin="round" />
</g>
<text x="123.31428571428572" y="324.7142857142857" font-size="12" letter-spacing="0.5" fill="#7a7f87">POP</text>
<text x="147.82857142857142" y="324.7142857142857" font-weight="500" fill="#2d2d2d">1.2B</text>
<g transform="translate(194.62857142857143 312.7142857142857) scale(0.875)" color="#7a7f87">
<path d="M 8 2 L 13 4 L 13 8 Q 13 12 8 14 Q 3 12 3 8 L 3 4 Z" fill="none" stroke="currentColor" stroke-width="1.4" stroke-linejoin="round" />
</g>
<text x="212.62857142857143" y="324.7142857142857" font-size="12" letter-spacing="0.5" fill="#7a7f87">MIL</text>
<text x="237.14285714285714" y="324.7142857142857" font-weight="500" fill="#3f8f5c">Strong</text>
<g transform="translate(298.34285714285716 312.7142857142857) scale(0.875)" color="#7a7f87">
<polygon points="8,2 14,6 14,10 8,14 2,10 2,6" fill="none" stroke="currentColor" stroke-width="1.4" stroke-linejoin="round" />
<circle cx="8" cy="8" r="2" fill="currentColor" />
</g>
<text x="316.34285714285716" y="324.7142857142857" font-size="12" letter-spacing="0.5" fill="#7a7f87">TECH</text>
<text x="347.02857142857147" y="324.7142857142857" font-weight="500" fill="#2d2d2d">T7</text>
<g opacity="1">
<rect x="16.5" y="350.2142857142857" width="45" height="31" fill="#ffffff" stroke="#505050" stroke-width="1.25" rx="3" />
<g transform="translate(32 358.7142857142857) scale(0.875)" color="#2d2d2d">
<line x1="8" y1="3" x2="8" y2="13" stroke="currentColor" stroke-width="2" stroke-linecap="round" />
<line x1="3" y1="8" x2="13" y2="8" stroke="currentColor" stroke-width="2" stroke-linecap="round" />
</g>
</g>
<g opacity="1">
<rect x="70.5" y="350.2142857142857" width="94.2" height="31" fill="#ffffff" stroke="#505050" stroke-width="1.25" rx="3" />
<rect x="86.5" y="359.2142857142857" width="13" height="13" fill="none" stroke="#2d2d2d" stroke-width="1" rx="2" />
<text x="93" y="369.7142857142857" text-anchor="middle" font-size="12" font-weight="600" fill="#2d2d2d">S</text>
<text x="106" y="370.3809523809524" font-weight="500" fill="#2d2d2d">Search</text>
</g>
<g opacity="1">
<rect x="181.7" y="350.2142857142857" width="137.4" height="31" fill="#ffffff" stroke="#b0413c" stroke-width="1.25" rx="3" />
<g transform="translate(197.2 358.7142857142857) scale(0.875)" color="#b0413c">
<path d="M 2 10 L 14 10 L 12 14 L 4 14 Z" fill="none" stroke="currentColor" stroke-width="1.4" stroke-linejoin="round" />
<line x1="8" y1="2" x2="8" y2="10" stroke="currentColor" stroke-width="1.4" />
<path d="M 8 3 L 12 7 L 8 7 Z" fill="currentColor" />
</g>
<text x="217.2" y="370.3809523809524" font-weight="500" fill="#b0413c">Recall fleet</text>
</g>
<g opacity="1">
<rect x="328.1" y="350.2142857142857" width="94.2" height="31" fill="#3a3a3a" stroke="#505050" stroke-width="1.25" rx="3" />
<g transform="translate(343.6 358.7142857142857) scale(0.875)" color="#ffffff">
<path d="M 3 14 L 3 5 L 5 5 L 5 3 L 11 3 L 11 5 L 13 5 L 13 14 Z" fill="none" stroke="currentColor" stroke-width="1.4" stroke-linejoin="round" />
<line x1="8" y1="5" x2="8" y2="14" stroke="currentColor" stroke-width="1" />
</g>
<text x="363.6" y="370.3809523809524" font-weight="500" fill="#ffffff">Govern</text>
</g>
<text x="16" y="404.7142857142857" fill="#3f8f5c">Status: Surplus</text>
<text x="16" y="432.7142857142857" fill="#b0413c">Status: Unrest</text>
<text x="16" y="460.7142857142857" fill="#c79a2e">Status: Inspecting</text>
</svg>