<svg xmlns="http://www.w3.org/2000/svg" width="544" height="378" viewBox="0 0 544 378" font-family="system-ui, -apple-system, &quot;Segoe UI&quot;, Roboto, sans-serif" font-size="14" id="v045-showcase"><rect x="0" y="0" width="544" height="378" fill="#ffffff" /><rect x="0.5" y="0.5" width="543" height="377" fill="none" stroke="#505050" stroke-width="1.25" /><line x1="0" y1="36" x2="544" y2="36" stroke="#b0b0b0" stroke-width="1" /><text x="272" y="23.333333333333332" text-anchor="middle" font-size="16" font-weight="600" fill="#2d2d2d">File Explorer</text><rect x="16" y="52" width="512" height="28" fill="#f5f6f8" stroke="#c4c4c4" stroke-width="1" /><text x="28" y="70.66666666666667" fill="#2d2d2d">File</text><text x="80.8" y="70.66666666666667" fill="#2d2d2d">Edit</text><g transform="translate(16 92) scale(0.875)" color="#6b7078"><path d="M 8 2 L 9 3.5 L 11 3 L 11.5 5 L 13 6 L 12.5 8 L 13 10 L 11.5 11 L 11 13 L 9 12.5 L 8 14 L 7 12.5 L 5 13 L 4.5 11 L 3 10 L 3.5 8 L 3 6 L 4.5 5 L 5 3 L 7 3.5 Z" fill="none" stroke="currentColor" stroke-width="1.2" stroke-linejoin="round" /><circle cx="8" cy="8" r="2" fill="none" stroke="currentColor" stroke-width="1.2" /></g><text x="34" y="103.66666666666667" font-weight="400" fill="#7a7f87">Home</text><text x="78.8" y="103.66666666666667" fill="#8a9099">›</text><text x="92.8" y="103.66666666666667" font-weight="400" fill="#7a7f87">Projects</text><text x="156.4" y="103.66666666666667" fill="#8a9099">›</text><text x="170.4" y="103.66666666666667" font-weight="600" fill="#2d2d2d">Wireloom</text><text x="20" y="133.66666666666666" font-size="12" fill="#6b7078">▾</text><text x="32" y="133.66666666666666" fill="#2d2d2d">src</text><text x="50" y="155.66666666666666" fill="#2d2d2d">parser.ts</text><text x="38" y="177.66666666666666" font-size="12" fill="#6b7078">▸</text><text x="50" y="177.66666666666666" fill="#2d2d2d">renderer</text><rect x="16" y="184" width="220" height="22" fill="#e7edf5" rx="2" /><text x="32" y="199.66666666666666" fill="#2d2d2d">README.md</text><rect x="244.5" y="118.5" width="283" height="243" fill="none" stroke="#8a8a8a" stroke-width="1" stroke-dasharray="4 3" rx="2" /><circle cx="272" cy="146" r="15.5" fill="#3f7cc2" stroke="#3f7cc2" stroke-width="1" /><text x="272" y="150.33333333333334" text-anchor="middle" font-size="13" font-weight="600" fill="#ffffff">BW</text><text x="296" y="145" font-weight="700" fill="#2d2d2d">Brad Wardell</text><text x="296" y="173" fill="#7a7f87">Project owner</text><rect x="256.5" y="186.5" width="91" height="21" rx="11" fill="#eef0f3" stroke="#3f7cc2" stroke-width="1" /><text x="266" y="201.66666666666666" font-size="12" fill="#3f7cc2">typescript</text><rect x="356.5" y="186.5" width="56.6" height="21" rx="11" fill="#eef0f3" stroke="#c28a3a" stroke-width="1" /><text x="366" y="201.66666666666666" font-size="12" fill="#c28a3a">svg</text><line x1="395.6" y1="193" x2="403.6" y2="201" stroke="#c28a3a" stroke-width="1.2" stroke-linecap="round" /><line x1="403.6" y1="193" x2="395.6" y2="201" stroke="#c28a3a" stroke-width="1.2" stroke-linecap="round" /><rect x="422.1" y="186.5" width="76.6" height="21" rx="11" fill="#3a3a3a" stroke="#3a3a3a" stroke-width="1" /><text x="431.6" y="201.66666666666666" font-size="12" fill="#ffffff">selected</text><g opacity="1"><rect x="379.7" y="218.5" width="15" height="15" rx="2" fill="#ffffff" stroke="#6b7078" stroke-width="1.2" /><path d="M 382.71999999999997 226.32 L 386.4 229.84 L 392 222.48" fill="none" stroke="#2d2d2d" stroke-width="2" stroke-linecap="round" stroke-linejoin="round" /><text x="256" y="230.66666666666666" fill="#2d2d2d">Enable auto-save</text></g><g opacity="1"><circle cx="308" cy="254" r="7.5" fill="#ffffff" stroke="#6b7078" stroke-width="1.2" /><text x="256" y="258.6666666666667" fill="#2d2d2d">Light</text></g><g opacity="1"><circle cx="300.8" cy="282" r="7.5" fill="#ffffff" stroke="#6b7078" stroke-width="1.2" /><circle cx="300.8" cy="282" r="4" fill="#2d2d2d" /><text x="256" y="286.6666666666667" fill="#2d2d2d">Dark</text></g><g opacity="1"><rect x="400.8" y="301" width="32" height="18" rx="9" fill="#3a3a3a" /><circle cx="423.8" cy="310" r="7" fill="#ffffff" /><text x="256" y="314.6666666666667" fill="#2d2d2d">Sync across devices</text></g><circle cx="264" cy="338" r="6" fill="none" stroke="#6b7078" stroke-width="1.6" stroke-dasharray="7.800000000000001 5.4" stroke-linecap="round" /><text x="280" y="342.6666666666667" font-size="12" fill="#7a7f87">Loading…</text><rect x="346.1" y="328.5" width="69" height="21" rx="11" fill="#e8f3ec" stroke="#3f8f5c" stroke-width="1" /><path d="M 355.6 339 L 359.6 343 L 365.6 335" fill="none" stroke="#3f8f5c" stroke-width="1.8" stroke-linecap="round" stroke-linejoin="round" /><text x="371.6" y="343.6666666666667" font-size="12" font-weight="500" fill="#205537">Saved</text></svg>